<svg version="1.1" id="Layer_1" xmlns="http://www.w3.org/2000/svg" xmlns:xlink="http://www.w3.org/1999/xlink" x="0px" y="0px"
	 width="100%" viewBox="0 0 2048 512" enable-background="new 0 0 2048 512" xml:space="preserve">
<path fill="#FEFEFE" opacity="1.000000" stroke="none" 
	d="
M1478.000000,513.000000 
	C985.333313,513.000000 493.166656,513.000000 1.000000,513.000000 
	C1.000000,342.333344 1.000000,171.666672 1.000000,1.000000 
	C683.666687,1.000000 1366.333374,1.000000 2049.000000,1.000000 
	C2049.000000,171.666672 2049.000000,342.333344 2049.000000,513.000000 
	C1858.833374,513.000000 1668.666626,513.000000 1478.000000,513.000000 
M1068.717529,359.073700 
	C1071.437866,358.935760 1074.158081,358.797852 1077.757812,358.971222 
	C1080.830444,358.844269 1083.903198,358.717316 1087.725220,358.573242 
	C1087.936890,356.970154 1088.330078,355.367432 1088.333008,353.763977 
	C1088.387573,324.439514 1088.339966,295.114716 1088.435547,265.790405 
	C1088.486450,250.180893 1097.947876,240.059799 1113.422485,239.077316 
	C1117.034058,238.848038 1120.706177,239.419662 1124.340576,239.735733 
	C1130.875732,240.304062 1136.096191,243.787201 1138.362915,249.512589 
	C1140.549194,255.035049 1141.588501,261.332489 1141.675537,267.310699 
	C1142.097534,296.296112 1142.105713,325.288849 1142.042847,354.278503 
	C1142.034546,358.082611 1143.211548,359.285980 1146.845703,359.170959 
	C1153.004395,358.976013 1159.172852,359.083923 1165.337280,359.076813 
	C1172.128296,359.069000 1178.919434,359.075043 1185.774536,359.075043 
	C1186.025635,357.631805 1186.287720,356.834686 1186.285034,356.038422 
	C1186.171875,321.716583 1186.382690,287.388123 1185.723267,253.076462 
	C1185.473755,240.090668 1182.773193,227.286514 1174.042114,216.731155 
	C1159.671509,199.357971 1128.303711,193.759857 1106.666626,205.212509 
	C1100.381226,208.539444 1094.890991,213.368698 1088.627319,217.798477 
	C1088.544312,216.331482 1088.364746,214.634216 1088.364746,212.936966 
	C1088.365234,191.276749 1088.305542,169.615829 1088.484863,147.956940 
	C1088.519897,143.719727 1087.438110,142.085464 1082.869751,142.244232 
	C1072.551514,142.602844 1062.201416,142.675461 1051.887695,142.270584 
	C1046.762817,142.069397 1045.442261,143.614975 1045.452393,148.672455 
	C1045.586548,215.484940 1045.504150,282.297852 1045.476074,349.110657 
	C1045.474854,352.229919 1045.475830,355.349182 1045.475830,359.172180 
	C1050.173950,358.950226 1054.094360,358.765015 1058.878906,358.911316 
	C1061.959106,358.819214 1065.039429,358.727142 1068.717529,359.073700 
M1850.000000,216.000000 
	C1850.000000,216.000000 1850.047852,215.966873 1849.906982,215.308243 
	C1848.038696,213.422562 1846.321289,211.352066 1844.276123,209.683014 
	C1835.145630,202.230972 1824.509521,199.021332 1812.838501,198.710190 
	C1794.353271,198.217377 1776.852051,200.518127 1763.532959,215.336060 
	C1763.069458,215.851669 1762.203613,216.005417 1761.033325,216.561661 
	C1760.887085,214.741592 1760.697144,213.482758 1760.698242,212.224091 
	C1760.716431,191.075607 1760.770020,169.927170 1760.788452,148.778687 
	C1760.794556,141.702591 1760.759888,141.684235 1753.405518,141.684128 
	C1743.406250,141.683960 1733.402710,141.895996 1723.409790,141.651489 
	C1718.878296,141.540604 1717.234009,143.017349 1717.239136,147.649826 
	C1717.315918,216.644028 1717.290161,285.638428 1717.153687,354.632538 
	C1717.145508,358.764252 1718.685303,359.698822 1722.443481,359.628967 
	C1733.105713,359.430786 1743.773804,359.560638 1754.439575,359.530090 
	C1761.223389,359.510651 1761.252441,359.485748 1761.269775,352.449799 
	C1761.338867,324.285553 1761.345215,296.121063 1761.461914,267.957031 
	C1761.528809,251.807999 1768.584717,242.547043 1784.192261,239.398117 
	C1794.975464,237.222565 1805.153687,238.878845 1812.529907,248.347763 
	C1817.189453,254.329025 1817.855713,261.528412 1818.197998,268.670410 
	C1818.635376,277.791687 1818.612305,286.935059 1818.631714,296.987335 
	C1818.722290,317.333130 1818.812866,337.678955 1819.105835,358.783844 
	C1819.372437,358.972900 1819.638062,359.326172 1819.905640,359.327454 
	C1833.385620,359.393646 1846.865601,359.424561 1860.345703,359.473022 
	C1863.463379,359.484222 1863.636841,357.424591 1863.632446,355.064087 
	C1863.565918,319.436676 1863.885864,283.802216 1863.191650,248.187378 
	C1863.042114,240.514526 1859.680420,232.756668 1856.958862,225.346207 
	C1855.671021,221.839951 1852.403442,219.060837 1850.000000,216.000000 
M426.787323,207.779877 
	C425.347595,205.152924 423.967194,202.491379 422.459015,199.904343 
	C406.624847,172.743454 382.836548,156.321548 352.562317,149.374512 
	C335.776123,145.522568 318.881653,146.541901 302.175537,151.143433 
	C274.526398,158.759171 253.278488,174.920792 238.541565,199.272079 
	C222.860535,225.183380 219.429214,253.129532 226.632462,282.492798 
	C237.366287,326.248169 274.299988,357.979492 318.175812,362.623627 
	C349.830658,365.974213 377.807068,357.301300 401.720795,336.334045 
	C437.428101,305.026276 447.558960,253.315125 426.787323,207.779877 
M861.367249,259.195038 
	C859.859070,254.461624 858.416626,249.706039 856.830444,244.998901 
	C851.618530,229.531937 841.889648,217.531693 827.751953,209.610825 
	C807.220703,198.107819 785.282715,196.740265 763.079346,203.546402 
	C735.105957,212.121201 719.815491,232.517761 713.583069,260.179016 
	C710.372375,274.429321 710.522949,288.827423 713.685425,303.283844 
	C717.676514,321.528137 725.958374,336.959839 741.354065,347.826752 
	C763.610596,363.536285 788.279419,366.158081 814.069336,359.320282 
	C836.239136,353.442322 851.103088,339.257233 858.514709,317.461914 
	C858.997070,316.043427 858.986023,314.457214 859.249756,312.636627 
	C845.705750,312.636627 832.896912,312.579407 820.090454,312.727234 
	C818.841919,312.741638 817.243958,313.731476 816.426575,314.760010 
	C811.238403,321.288391 804.186890,324.244843 796.285278,325.603607 
	C778.710510,328.625763 760.982361,320.167572 756.403992,303.788239 
	C754.859314,298.262115 755.014893,297.787506 760.730469,297.785797 
	C792.723755,297.776245 824.717224,297.697449 856.709900,297.830566 
	C860.505859,297.846375 862.250183,296.959320 862.134277,292.932373 
	C861.818604,281.974365 861.696594,271.010803 861.367249,259.195038 
M1008.735352,341.241760 
	C1017.902710,330.864105 1023.192932,318.931702 1023.847595,305.040344 
	C1022.850037,304.709290 1022.383362,304.419617 1021.916443,304.419189 
	C1009.587341,304.407837 997.256470,304.336121 984.931824,304.577942 
	C983.685547,304.602448 981.816406,306.319763 981.356140,307.641510 
	C977.897034,317.574432 970.556885,322.273804 960.641357,324.051544 
	C946.360535,326.611908 930.484436,317.130646 927.189148,303.544098 
	C923.802856,289.581970 923.765198,275.499603 926.977600,261.485535 
	C931.186462,243.124161 948.325623,236.071304 964.265381,239.556763 
	C970.721191,240.968414 976.816833,244.197952 978.553345,250.008499 
	C981.189148,258.827942 986.866089,258.694946 993.641296,258.181519 
	C995.463684,258.043427 997.305603,258.164612 999.138550,258.164703 
	C1007.090637,258.165192 1015.042786,258.164948 1023.596008,258.164948 
	C1022.398560,240.180847 1016.206177,225.288345 1002.468689,214.164963 
	C990.395447,204.389160 976.211975,200.612320 960.827332,199.823547 
	C921.293823,197.796661 891.592285,219.086975 882.266907,257.427094 
	C878.747559,271.896210 878.691101,286.624817 881.463745,301.521179 
	C884.928589,320.136505 892.969360,335.642151 908.070374,347.241699 
	C924.022766,359.495178 942.302734,363.272705 962.028564,362.343048 
	C980.204041,361.486481 995.419250,354.397217 1008.735352,341.241760 
M666.500122,151.577087 
	C633.186279,151.583771 599.872253,151.649994 566.558960,151.521469 
	C562.417664,151.505508 561.062927,152.688644 561.225830,156.936188 
	C561.570251,165.917938 561.551392,174.927216 561.280029,183.913071 
	C561.150452,188.203552 562.386841,189.760956 566.862732,189.695084 
	C580.517395,189.494156 594.178101,189.736328 607.836487,189.748901 
	C614.500732,189.755035 614.455017,189.697586 614.452637,196.198441 
	C614.433533,248.666962 614.485413,301.135620 614.332642,353.603729 
	C614.319641,358.061890 615.672363,359.322266 620.013855,359.215851 
	C631.000610,358.946625 642.001282,358.986633 652.990417,359.203796 
	C657.085632,359.284698 658.331665,358.085114 658.318481,353.818665 
	C658.154907,301.017395 658.266541,248.215225 658.091248,195.414017 
	C658.075562,190.691940 659.452209,189.443390 664.034546,189.537354 
	C678.020447,189.824142 692.017639,189.535965 706.005920,189.754562 
	C710.172485,189.819687 712.002869,188.889130 711.860229,184.251648 
	C711.583923,175.269226 711.685242,166.257645 712.089966,157.278870 
	C712.307068,152.463058 710.428711,151.339508 705.975159,151.430435 
	C693.154480,151.692215 680.325745,151.555756 666.500122,151.577087 
M1311.500000,151.382751 
	C1276.008301,151.382980 1240.516357,151.441818 1205.025269,151.302811 
	C1200.984253,151.287003 1199.832886,152.644882 1199.909546,156.510620 
	C1200.095093,165.837234 1200.097778,175.176880 1199.800781,184.499359 
	C1199.670532,188.589188 1200.782715,189.996231 1205.076416,189.913498 
	C1219.401123,189.637497 1233.735107,189.862274 1248.063599,189.715118 
	C1251.777710,189.676971 1252.997681,190.920273 1252.800171,194.703430 
	C1252.488281,200.674515 1252.817993,206.677353 1252.817993,212.666748 
	C1252.818604,259.988708 1252.860962,307.310913 1252.688354,354.632263 
	C1252.674683,358.334534 1253.729248,359.229431 1257.136841,359.181763 
	C1268.298828,359.025604 1279.470825,358.864471 1290.624756,359.190887 
	C1295.593262,359.336273 1296.691528,357.595245 1296.663940,352.883881 
	C1296.360107,300.736481 1296.272949,248.587799 1296.129761,196.439468 
	C1296.111328,189.729630 1296.117798,189.754074 1302.635132,189.755325 
	C1316.465088,189.757965 1330.295044,189.744186 1344.125000,189.706879 
	C1346.385498,189.700790 1349.010132,190.280579 1349.018555,186.531799 
	C1349.041138,176.544235 1349.083618,166.554794 1349.311523,156.570511 
	C1349.409180,152.293640 1347.427979,151.227310 1343.491333,151.305389 
	C1333.164429,151.510239 1322.830933,151.381744 1311.500000,151.382751 
M1626.570435,356.932861 
	C1645.831421,364.629150 1665.360229,362.819305 1684.910034,358.397217 
	C1685.829956,358.189148 1686.938110,356.252014 1686.972412,355.090851 
	C1687.288574,344.438690 1687.355469,333.779388 1687.565308,323.123566 
	C1687.635254,319.568634 1686.492798,318.665436 1682.730347,319.339233 
	C1676.222412,320.504700 1669.553955,321.365448 1662.959595,321.322052 
	C1652.006470,321.250000 1646.443115,315.543549 1645.743042,304.698822 
	C1645.517822,301.212128 1645.557739,297.706573 1645.527710,294.209259 
	C1645.383545,277.390167 1645.310547,260.570190 1645.082520,243.752304 
	C1645.033081,240.110336 1646.333252,238.768417 1650.066406,238.828217 
	C1660.391113,238.993607 1670.722290,238.729477 1681.048828,238.835022 
	C1684.473999,238.870026 1685.821533,237.674820 1685.773438,234.188049 
	C1685.644653,224.861908 1685.599365,215.527939 1685.855835,206.206268 
	C1685.968628,202.102890 1684.293335,201.102188 1680.530518,201.161148 
	C1670.538574,201.317627 1660.539062,201.013229 1650.548218,201.199219 
	C1646.713989,201.270599 1645.281006,200.277313 1645.406494,196.158905 
	C1645.721069,185.839981 1645.484741,175.505356 1645.579224,165.178009 
	C1645.610474,161.754288 1644.617676,159.961899 1640.726440,160.028168 
	C1629.068848,160.226669 1617.405029,160.236984 1605.746094,160.112381 
	C1601.520264,160.067230 1600.306763,161.916931 1600.365479,165.891846 
	C1600.517822,176.217072 1600.256714,186.548126 1600.379150,196.874252 
	C1600.417847,200.135391 1599.294189,201.307007 1596.048340,201.243927 
	C1588.888550,201.104736 1581.721436,201.339127 1574.561157,201.210175 
	C1571.376831,201.152832 1570.088745,202.226532 1570.136475,205.533279 
	C1570.275757,215.192825 1570.276001,224.857651 1570.109985,234.516632 
	C1570.047363,238.155899 1571.677490,239.088409 1574.963989,238.998795 
	C1581.456543,238.821716 1587.971924,239.162445 1594.447144,238.775009 
	C1599.143677,238.494019 1600.507812,240.213364 1600.461304,244.764984 
	C1600.260864,264.419739 1600.209839,284.079041 1600.418579,303.733368 
	C1600.496094,311.024353 1600.956299,318.381165 1602.082764,325.576324 
	C1604.355713,340.096405 1612.438965,350.487701 1626.570435,356.932861 
M1496.747559,300.500000 
	C1496.797363,292.172516 1496.589111,283.833313 1496.966797,275.520721 
	C1497.373047,266.582642 1500.359253,258.640930 1507.581421,252.750015 
	C1512.952759,248.368881 1519.368286,246.443298 1525.990723,246.021240 
	C1534.551270,245.475662 1543.172729,245.888245 1551.981689,245.888245 
	C1552.163452,244.390244 1552.424316,243.268921 1552.416504,242.149521 
	C1552.330444,229.994080 1551.857910,217.828003 1552.243530,205.688736 
	C1552.413818,200.328308 1550.198730,198.242935 1545.590820,198.164932 
	C1526.278809,197.837967 1509.498535,203.158463 1498.173340,220.150757 
	C1497.239258,221.552185 1496.251343,222.917816 1495.288452,224.300095 
	C1494.750732,224.146103 1494.213135,223.992096 1493.675415,223.838104 
	C1493.912842,218.986145 1494.093872,214.130630 1494.401001,209.283081 
	C1494.840332,202.348083 1494.347778,201.769150 1487.626343,201.746735 
	C1485.795654,201.740631 1483.965332,201.605225 1482.134644,201.602295 
	C1472.561523,201.586945 1462.988403,201.595139 1453.801636,201.595139 
	C1453.308716,202.923584 1453.097656,203.227371 1453.097412,203.531357 
	C1453.052979,254.161987 1453.044800,304.792664 1452.944458,355.423187 
	C1452.937988,358.696136 1454.391602,359.222809 1457.213867,359.189606 
	C1468.704590,359.054535 1480.200928,358.947418 1491.688232,359.175659 
	C1495.763672,359.256653 1496.704102,357.815735 1496.673462,353.963837 
	C1496.533936,336.477203 1496.694214,318.988159 1496.747559,300.500000 
M1370.237671,258.500000 
	C1370.238281,290.324860 1370.295654,322.149994 1370.165161,353.974304 
	C1370.149292,357.817474 1371.120361,359.300354 1375.190186,359.212524 
	C1386.515381,358.968140 1397.851929,358.957947 1409.177612,359.177948 
	C1413.398193,359.259949 1414.536499,357.747375 1414.498413,353.669678 
	C1414.338013,336.509644 1414.512695,319.346710 1414.520752,302.184814 
	C1414.535522,270.693298 1414.435059,239.201340 1414.608032,207.710800 
	C1414.633301,203.101440 1413.256592,201.623962 1408.642090,201.750473 
	C1397.819824,202.047165 1386.980469,202.009888 1376.155273,201.774597 
	C1371.818848,201.680359 1370.034790,202.567856 1370.135864,207.516251 
	C1370.475952,224.171234 1370.247437,240.837845 1370.237671,258.500000 
M342.512604,437.500214 
	C342.541534,421.017029 342.632050,404.533630 342.570648,388.050812 
	C342.544189,380.945923 337.672638,376.281586 330.577850,376.191620 
	C323.440918,376.101135 318.115753,380.361267 318.046844,386.918945 
	C317.779358,412.385834 317.607849,437.855499 317.683228,463.323303 
	C317.706177,471.081665 323.405975,476.289093 330.626099,476.157501 
	C337.623535,476.029938 342.328613,470.925323 342.465393,462.974701 
	C342.605682,454.818726 342.506897,446.658600 342.512604,437.500214 
M342.526520,80.500488 
	C342.421173,69.343147 342.423096,58.183376 342.170715,47.029362 
	C342.017120,40.239632 336.469788,35.133972 329.901215,35.318466 
	C323.323120,35.503227 317.967102,40.837986 317.952881,47.532623 
	C317.900116,72.342781 317.883026,97.153343 317.975433,121.963295 
	C318.004883,129.872696 323.234253,134.827255 330.877289,134.643372 
	C338.039520,134.471054 342.593872,129.602829 342.599030,121.974342 
	C342.608154,108.483063 342.554810,94.991753 342.526520,80.500488 
M114.394791,257.876984 
	C116.631203,264.679504 120.352158,267.693298 127.028214,267.713470 
	C151.161255,267.786285 175.296600,267.930725 199.425171,267.607971 
	C202.450623,267.567474 206.046265,265.520844 208.310318,263.310425 
	C212.013580,259.694885 211.755875,254.679352 209.677292,250.263016 
	C207.565857,245.776901 203.775970,243.253326 198.510941,243.259094 
	C175.043640,243.284668 151.576263,243.237976 128.108917,243.221100 
	C118.015129,243.213852 114.328957,246.927002 114.394791,257.876984 
M467.552338,267.795959 
	C470.217712,267.798615 472.883087,267.809570 475.548431,267.802551 
	C495.038391,267.751282 514.528748,267.749878 534.018127,267.614777 
	C541.215942,267.564850 545.997925,262.781555 546.098206,255.927307 
	C546.204712,248.648178 541.792725,243.298569 535.040222,243.274582 
	C510.386749,243.186996 485.732208,243.242783 461.078918,243.387665 
	C455.392395,243.421066 450.529175,247.957626 449.624786,253.408142 
	C448.711334,258.913361 451.635681,265.200378 456.744293,266.934937 
	C459.769684,267.962189 463.282074,267.555267 467.552338,267.795959 
M439.538483,163.068268 
	C453.671326,148.758286 467.874451,134.516678 481.904297,120.106445 
	C487.970947,113.875351 488.152679,106.500023 482.847961,101.033409 
	C477.894989,95.929260 471.311157,96.375481 464.905914,102.782082 
	C448.207062,119.484535 431.625366,136.304977 415.091827,153.171371 
	C410.089294,158.274612 410.354736,164.368149 415.405060,169.528137 
	C420.198547,174.425766 426.878632,174.851578 431.862152,170.453690 
	C434.350098,168.258102 436.661957,165.862946 439.538483,163.068268 
M199.310272,404.815338 
	C214.681229,389.150208 229.919357,373.351044 245.504913,357.902405 
	C250.120453,353.327393 249.928055,345.618988 245.988571,341.236694 
	C241.391068,336.122375 233.641281,335.580139 228.622787,340.592560 
	C211.329132,357.865295 194.185989,375.290314 177.123672,392.791992 
	C172.685211,397.344757 172.916367,404.593903 177.083389,409.101715 
	C181.414841,413.787415 188.011444,414.381653 193.312408,410.383392 
	C195.292236,408.890106 196.986588,407.018341 199.310272,404.815338 
M411.417786,347.961639 
	C412.508850,350.962494 412.849823,354.632660 414.824219,356.845367 
	C422.346924,365.276123 430.351532,373.280762 438.260925,381.361603 
	C447.566864,390.869293 456.843781,400.410980 466.370911,409.694061 
	C470.532593,413.749115 475.493805,414.005402 480.079651,411.308350 
	C487.768494,406.786285 488.640045,398.323792 481.658386,391.097015 
	C465.821320,374.703979 449.547546,358.729034 433.869965,342.187347 
	C425.770386,333.641327 414.742645,337.279694 411.417786,347.961639 
M208.110947,149.388550 
	C215.193375,156.440704 222.186630,163.585602 229.390045,170.511932 
	C234.073013,175.014786 240.690338,174.582962 245.402130,169.829041 
	C250.105453,165.083710 250.406891,158.591049 245.908585,153.770279 
	C241.362488,148.898254 236.618256,144.210907 231.953247,139.450089 
	C219.477127,126.717697 207.098175,113.887703 194.474442,101.303322 
	C188.411575,95.259346 180.356339,96.370689 175.683517,103.419815 
	C172.641235,108.009209 173.683121,114.411461 178.821472,119.734589 
	C188.306625,129.560791 197.983673,139.201736 208.110947,149.388550 
M268.293457,437.890991 
	C275.844238,419.625031 283.424530,401.371185 290.930664,383.086914 
	C293.775452,376.157257 291.193146,369.789825 284.574310,366.974579 
	C278.010742,364.182831 271.067627,367.191986 268.220551,374.084137 
	C260.158447,393.600677 252.091797,413.115356 244.057693,432.643433 
	C241.837906,438.038910 243.203125,443.260590 247.679565,446.991943 
	C251.461929,450.144745 257.565796,450.957245 261.522156,447.703522 
	C264.299988,445.418976 265.879425,441.677246 268.293457,437.890991 
M378.462524,106.756798 
	C375.643341,113.692833 372.834869,120.633270 370.001953,127.563690 
	C367.134186,134.579407 369.784363,141.217682 376.603210,144.037170 
	C382.756989,146.581680 389.965332,143.412064 392.593872,136.911728 
	C400.574463,117.175751 408.657288,97.478401 416.308838,77.615219 
	C417.362152,74.880905 417.048035,70.930855 415.872803,68.182632 
	C413.931763,63.643646 409.732880,61.309746 404.612122,61.388222 
	C399.310791,61.469471 395.884003,64.565994 393.950867,69.121323 
	C388.751221,81.374130 383.787994,93.727280 378.462524,106.756798 
M280.443298,101.914223 
	C275.867065,91.025085 271.398315,80.089050 266.675323,69.263939 
	C263.720398,62.491276 256.917938,59.776070 250.607483,62.468948 
	C244.453598,65.095016 241.647263,71.633705 244.325058,78.276482 
	C252.226562,97.877670 260.235168,117.437119 268.398895,136.930389 
	C271.296692,143.849701 277.986176,146.514816 284.326447,143.841522 
	C290.734039,141.139847 293.432526,134.604462 290.743622,127.624840 
	C287.516266,119.247581 284.057617,110.959419 280.443298,101.914223 
M137.586884,327.397400 
	C136.463303,338.391083 144.359207,345.606354 153.885880,341.859406 
	C173.998627,333.948883 194.009827,325.776611 213.993973,317.544952 
	C220.049515,315.050598 222.345978,308.204163 219.695175,301.973755 
	C217.047241,295.750061 210.532776,292.587646 204.588638,295.006653 
	C184.726898,303.089569 164.860199,311.168518 145.164429,319.641907 
	C142.258316,320.892151 140.265747,324.265839 137.586884,327.397400 
M513.820984,168.279617 
	C510.755951,168.704193 507.480072,168.578079 504.665161,169.655945 
	C495.987732,172.978699 487.490356,176.770782 478.915558,180.362762 
	C468.485504,184.731918 457.999329,188.971390 447.630737,193.481506 
	C440.835724,196.437210 438.024902,203.399261 440.768463,209.557053 
	C443.800293,216.361877 449.732361,218.982315 456.670319,216.088928 
	C475.853241,208.088943 494.919739,199.809357 514.117249,191.845093 
	C519.214600,189.730423 522.658630,186.642258 522.846619,180.956207 
	C523.044922,174.960114 519.859985,170.978073 513.820984,168.279617 
M451.818237,319.585632 
	C469.677643,326.802307 487.553955,333.977509 505.388153,341.255920 
	C512.626831,344.210144 519.306335,341.679108 522.313599,334.607880 
	C524.795715,328.771515 521.682617,321.944153 515.015564,319.171356 
	C495.543823,311.073151 476.040497,303.050232 456.523010,295.062775 
	C450.963989,292.787750 446.661865,293.782593 442.986328,297.884064 
	C439.107971,302.211823 438.102997,307.189087 441.623108,311.986145 
	C443.886719,315.070953 447.902771,316.869751 451.818237,319.585632 
M387.772156,426.834991 
	C390.037292,432.183289 391.964417,437.708984 394.653870,442.834656 
	C397.956238,449.128418 404.366486,451.041260 410.306244,448.157684 
	C416.769928,445.019775 418.862732,439.878540 416.165405,432.825806 
	C412.660553,423.661652 408.918793,414.587921 405.259277,405.483185 
	C400.853638,394.522003 396.630371,383.481018 391.930817,372.646973 
	C389.274292,366.522705 381.971924,364.363373 375.778442,367.200378 
	C369.745941,369.963593 367.493774,376.293335 370.037720,382.564575 
	C375.916779,397.057465 381.664795,411.603546 387.772156,426.834991 
M151.138550,168.252289 
	C144.213806,168.128662 139.415451,171.346725 137.939346,177.104492 
	C136.369247,183.228760 139.024567,188.709015 145.565811,191.503113 
	C165.115540,199.853760 184.722183,208.073929 204.376556,216.175308 
	C210.450592,218.678986 216.240829,215.912476 219.159409,209.669632 
	C221.792313,204.037842 219.759125,196.850479 213.950699,194.351013 
	C193.368713,185.494308 172.628281,177.005798 151.138550,168.252289 
M1414.607178,158.500137 
	C1414.595581,152.834747 1414.533569,147.168808 1414.595581,141.504227 
	C1414.622925,139.002792 1414.090332,137.267456 1411.089600,137.279144 
	C1398.592773,137.327820 1386.093994,137.231461 1373.601196,137.468719 
	C1372.444336,137.490692 1370.360596,139.472763 1370.336548,140.580017 
	C1370.080811,152.387039 1370.050537,164.203400 1370.302612,176.009872 
	C1370.327026,177.156357 1372.637451,179.199951 1373.920166,179.226776 
	C1386.245605,179.484528 1398.578247,179.367264 1410.908569,179.434265 
	C1413.710327,179.449478 1414.710327,178.257385 1414.637573,175.494919 
	C1414.497437,170.166595 1414.603638,164.831787 1414.607178,158.500137 
z"/>
<path fill="#F47819" opacity="1.000000" stroke="none" 
	d="
M426.937256,208.123444 
	C447.558960,253.315125 437.428101,305.026276 401.720795,336.334045 
	C377.807068,357.301300 349.830658,365.974213 318.175812,362.623627 
	C274.299988,357.979492 237.366287,326.248169 226.632462,282.492798 
	C219.429214,253.129532 222.860535,225.183380 238.541565,199.272079 
	C253.278488,174.920792 274.526398,158.759171 302.175537,151.143433 
	C318.881653,146.541901 335.776123,145.522568 352.562317,149.374512 
	C382.836548,156.321548 406.624847,172.743454 422.459015,199.904343 
	C423.967194,202.491379 425.347595,205.152924 426.937256,208.123444 
z"/>
<path fill="#22272B" opacity="1.000000" stroke="none" 
	d="
M1058.014771,358.579803 
	C1054.094360,358.765015 1050.173950,358.950226 1045.475830,359.172180 
	C1045.475830,355.349182 1045.474854,352.229919 1045.476074,349.110657 
	C1045.504150,282.297852 1045.586548,215.484940 1045.452393,148.672455 
	C1045.442261,143.614975 1046.762817,142.069397 1051.887695,142.270584 
	C1062.201416,142.675461 1072.551514,142.602844 1082.869751,142.244232 
	C1087.438110,142.085464 1088.519897,143.719727 1088.484863,147.956940 
	C1088.305542,169.615829 1088.365234,191.276749 1088.364746,212.936966 
	C1088.364746,214.634216 1088.544312,216.331482 1088.627319,217.798477 
	C1094.890991,213.368698 1100.381226,208.539444 1106.666626,205.212509 
	C1128.303711,193.759857 1159.671509,199.357971 1174.042114,216.731155 
	C1182.773193,227.286514 1185.473755,240.090668 1185.723267,253.076462 
	C1186.382690,287.388123 1186.171875,321.716583 1186.285034,356.038422 
	C1186.287720,356.834686 1186.025635,357.631805 1185.774536,359.075043 
	C1178.919434,359.075043 1172.128296,359.069000 1165.337280,359.076813 
	C1159.172852,359.083923 1153.004395,358.976013 1146.845703,359.170959 
	C1143.211548,359.285980 1142.034546,358.082611 1142.042847,354.278503 
	C1142.105713,325.288849 1142.097534,296.296112 1141.675537,267.310699 
	C1141.588501,261.332489 1140.549194,255.035049 1138.362915,249.512589 
	C1136.096191,243.787201 1130.875732,240.304062 1124.340576,239.735733 
	C1120.706177,239.419662 1117.034058,238.848038 1113.422485,239.077316 
	C1097.947876,240.059799 1088.486450,250.180893 1088.435547,265.790405 
	C1088.339966,295.114716 1088.387573,324.439514 1088.333008,353.763977 
	C1088.330078,355.367432 1087.936890,356.970154 1087.332275,358.260559 
	C1086.920410,357.305176 1086.901611,356.662476 1086.910645,355.549866 
	C1086.938599,323.954407 1086.938599,292.828918 1086.938599,261.703430 
	C1086.284302,261.702759 1085.629883,261.702118 1084.975586,261.701477 
	C1084.975586,293.128906 1084.975586,324.556335 1084.508423,355.986023 
	C1075.253784,355.989349 1066.466431,355.990326 1057.678955,355.991486 
	C1048.802002,355.992706 1048.803101,355.992676 1047.763428,347.361176 
	C1047.750122,347.249512 1047.578247,347.156891 1047.470215,347.044800 
	C1047.470215,350.268127 1047.470215,353.451080 1047.470215,356.095642 
	C1051.336304,357.006439 1054.675537,357.793121 1058.014771,358.579803 
M1049.000000,274.506897 
	C1049.000000,269.892242 1049.000000,265.277588 1049.000000,260.662933 
	C1048.570923,260.681885 1048.141724,260.700867 1047.712646,260.719818 
	C1047.712646,275.246704 1047.712646,289.773590 1047.712646,304.300476 
	C1048.141724,304.299347 1048.570923,304.298218 1049.000000,304.297119 
	C1049.000000,294.699768 1049.000000,285.102448 1049.000000,274.506897 
M1049.004883,326.294647 
	C1049.004883,323.077026 1049.004883,319.859406 1049.004883,316.641815 
	C1048.533447,316.670166 1048.062012,316.698547 1047.590576,316.726929 
	C1047.590576,321.591980 1047.590576,326.457062 1047.590576,331.322144 
	C1047.949951,331.329620 1048.309448,331.337097 1048.668823,331.344604 
	C1048.780884,329.964844 1048.892822,328.585083 1049.004883,326.294647 
M1047.635376,199.643906 
	C1047.408813,203.187424 1047.182251,206.730942 1046.955688,210.274475 
	C1047.655273,210.276337 1048.354980,210.278198 1049.054565,210.280060 
	C1048.843994,206.742798 1048.633423,203.205521 1047.635376,199.643906 
M1047.648560,230.622345 
	C1047.450928,233.181702 1047.253296,235.741058 1047.055664,238.300415 
	C1047.687622,238.303024 1048.319580,238.305618 1048.951538,238.308228 
	C1048.770142,235.754272 1048.588745,233.200317 1047.648560,230.622345 
M1048.806152,252.873840 
	C1048.806152,251.432816 1048.806152,249.991791 1048.806152,248.550766 
	C1048.138428,248.671524 1047.470581,248.792267 1046.802856,248.913025 
	C1047.321167,250.416763 1047.839355,251.920517 1048.806152,252.873840 
M1047.135010,146.383148 
	C1047.135010,147.603806 1047.135010,148.824463 1047.135010,150.045120 
	C1047.437256,150.038849 1047.739624,150.032593 1048.041870,150.026337 
	C1047.884521,148.667892 1047.727173,147.309464 1047.135010,146.383148 
M1048.858887,224.510071 
	C1048.433594,224.203995 1048.008301,223.897903 1047.583130,223.591812 
	C1047.471802,224.043945 1047.360474,224.496063 1047.249146,224.948181 
	C1047.745117,225.001740 1048.241211,225.055313 1048.858887,224.510071 
M1047.151245,158.295868 
	C1047.151245,159.229691 1047.151245,160.163513 1047.151245,161.097351 
	C1047.406250,161.084106 1047.661133,161.070877 1047.916138,161.057648 
	C1047.800415,160.005173 1047.684692,158.952713 1047.151245,158.295868 
M1047.837280,165.972153 
	C1047.743652,165.562912 1047.650024,165.153671 1047.556396,164.744431 
	C1047.437378,164.835495 1047.208008,164.941101 1047.217651,165.015228 
	C1047.272339,165.430862 1047.384766,165.838913 1047.837280,165.972153 
M1086.482910,256.592133 
	C1086.482910,256.592133 1086.414673,256.478333 1086.482910,256.592133 
z"/>
<path fill="#23272C" opacity="1.000000" stroke="none" 
	d="
M861.432556,259.622253 
	C861.696594,271.010803 861.818604,281.974365 862.134277,292.932373 
	C862.250183,296.959320 860.505859,297.846375 856.709900,297.830566 
	C824.717224,297.697449 792.723755,297.776245 760.730469,297.785797 
	C755.014893,297.787506 754.859314,298.262115 756.403992,303.788239 
	C760.982361,320.167572 778.710510,328.625763 796.285278,325.603607 
	C804.186890,324.244843 811.238403,321.288391 816.426575,314.760010 
	C817.243958,313.731476 818.841919,312.741638 820.090454,312.727234 
	C832.896912,312.579407 845.705750,312.636627 859.249756,312.636627 
	C858.986023,314.457214 858.997070,316.043427 858.514709,317.461914 
	C851.103088,339.257233 836.239136,353.442322 814.069336,359.320282 
	C788.279419,366.158081 763.610596,363.536285 741.354065,347.826752 
	C725.958374,336.959839 717.676514,321.528137 713.685425,303.283844 
	C710.522949,288.827423 710.372375,274.429321 713.583069,260.179016 
	C719.815491,232.517761 735.105957,212.121201 763.079346,203.546402 
	C785.282715,196.740265 807.220703,198.107819 827.751953,209.610825 
	C841.889648,217.531693 851.618530,229.531937 856.830444,244.998901 
	C858.416626,249.706039 859.859070,254.461624 861.432556,259.622253 
M778.073730,266.156128 
	C779.043213,266.770203 780.005493,267.904236 780.983276,267.917755 
	C790.574768,268.050446 800.170654,268.082367 809.759644,267.878937 
	C810.866577,267.855469 811.939392,266.227783 813.760498,265.056976 
	C814.791626,265.146362 815.822815,265.235748 817.066284,265.883240 
	C817.417725,265.675354 817.769226,265.467468 818.481567,264.685974 
	C820.286377,258.768524 817.401855,253.872147 814.347900,249.502396 
	C806.456848,238.211517 794.974731,234.931778 781.923340,236.988846 
	C767.846191,239.207611 759.508423,248.076813 755.435181,261.417603 
	C754.615906,264.100983 755.844788,265.040192 758.147461,266.291107 
	C760.325500,269.153931 762.001770,269.119232 763.924133,265.143707 
	C768.623474,265.219788 773.322876,265.295868 778.073730,266.156128 
z"/>
<path fill="#23272C" opacity="1.000000" stroke="none" 
	d="
M1008.495605,341.500458 
	C995.419250,354.397217 980.204041,361.486481 962.028564,362.343048 
	C942.302734,363.272705 924.022766,359.495178 908.070374,347.241699 
	C892.969360,335.642151 884.928589,320.136505 881.463745,301.521179 
	C878.691101,286.624817 878.747559,271.896210 882.266907,257.427094 
	C891.592285,219.086975 921.293823,197.796661 960.827332,199.823547 
	C976.211975,200.612320 990.395447,204.389160 1002.468689,214.164963 
	C1016.206177,225.288345 1022.398560,240.180847 1023.596008,258.164948 
	C1015.042786,258.164948 1007.090637,258.165192 999.138550,258.164703 
	C997.305603,258.164612 995.463684,258.043427 993.641296,258.181519 
	C986.866089,258.694946 981.189148,258.827942 978.553345,250.008499 
	C976.816833,244.197952 970.721191,240.968414 964.265381,239.556763 
	C948.325623,236.071304 931.186462,243.124161 926.977600,261.485535 
	C923.765198,275.499603 923.802856,289.581970 927.189148,303.544098 
	C930.484436,317.130646 946.360535,326.611908 960.641357,324.051544 
	C970.556885,322.273804 977.897034,317.574432 981.356140,307.641510 
	C981.816406,306.319763 983.685547,304.602448 984.931824,304.577942 
	C997.256470,304.336121 1009.587341,304.407837 1021.916443,304.419189 
	C1022.383362,304.419617 1022.850037,304.709290 1023.847595,305.040344 
	C1023.192932,318.931702 1017.902710,330.864105 1008.495605,341.500458 
z"/>
<path fill="#24282D" opacity="1.000000" stroke="none" 
	d="
M667.000122,151.576416 
	C680.325745,151.555756 693.154480,151.692215 705.975159,151.430435 
	C710.428711,151.339508 712.307068,152.463058 712.089966,157.278870 
	C711.685242,166.257645 711.583923,175.269226 711.860229,184.251648 
	C712.002869,188.889130 710.172485,189.819687 706.005920,189.754562 
	C692.017639,189.535965 678.020447,189.824142 664.034546,189.537354 
	C659.452209,189.443390 658.075562,190.691940 658.091248,195.414017 
	C658.266541,248.215225 658.154907,301.017395 658.318481,353.818665 
	C658.331665,358.085114 657.085632,359.284698 652.990417,359.203796 
	C642.001282,358.986633 631.000610,358.946625 620.013855,359.215851 
	C615.672363,359.322266 614.319641,358.061890 614.332642,353.603729 
	C614.485413,301.135620 614.433533,248.666962 614.452637,196.198441 
	C614.455017,189.697586 614.500732,189.755035 607.836487,189.748901 
	C594.178101,189.736328 580.517395,189.494156 566.862732,189.695084 
	C562.386841,189.760956 561.150452,188.203552 561.280029,183.913071 
	C561.551392,174.927216 561.570251,165.917938 561.225830,156.936188 
	C561.062927,152.688644 562.417664,151.505508 566.558960,151.521469 
	C599.872253,151.649994 633.186279,151.583771 667.000122,151.576416 
z"/>
<path fill="#F5791A" opacity="1.000000" stroke="none" 
	d="
M1312.000000,151.384415 
	C1322.830933,151.381744 1333.164429,151.510239 1343.491333,151.305389 
	C1347.427979,151.227310 1349.409180,152.293640 1349.311523,156.570511 
	C1349.083618,166.554794 1349.041138,176.544235 1349.018555,186.531799 
	C1349.010132,190.280579 1346.385498,189.700790 1344.125000,189.706879 
	C1330.295044,189.744186 1316.465088,189.757965 1302.635132,189.755325 
	C1296.117798,189.754074 1296.111328,189.729630 1296.129761,196.439468 
	C1296.272949,248.587799 1296.360107,300.736481 1296.663940,352.883881 
	C1296.691528,357.595245 1295.593262,359.336273 1290.624756,359.190887 
	C1279.470825,358.864471 1268.298828,359.025604 1257.136841,359.181763 
	C1253.729248,359.229431 1252.674683,358.334534 1252.688354,354.632263 
	C1252.860962,307.310913 1252.818604,259.988708 1252.817993,212.666748 
	C1252.817993,206.677353 1252.488281,200.674515 1252.800171,194.703430 
	C1252.997681,190.920273 1251.777710,189.676971 1248.063599,189.715118 
	C1233.735107,189.862274 1219.401123,189.637497 1205.076416,189.913498 
	C1200.782715,189.996231 1199.670532,188.589188 1199.800781,184.499359 
	C1200.097778,175.176880 1200.095093,165.837234 1199.909546,156.510620 
	C1199.832886,152.644882 1200.984253,151.287003 1205.025269,151.302811 
	C1240.516357,151.441818 1276.008301,151.382980 1312.000000,151.384415 
z"/>
<path fill="#F67A1C" opacity="1.000000" stroke="none" 
	d="
M1626.233154,356.759979 
	C1612.438965,350.487701 1604.355713,340.096405 1602.082764,325.576324 
	C1600.956299,318.381165 1600.496094,311.024353 1600.418579,303.733368 
	C1600.209839,284.079041 1600.260864,264.419739 1600.461304,244.764984 
	C1600.507812,240.213364 1599.143677,238.494019 1594.447144,238.775009 
	C1587.971924,239.162445 1581.456543,238.821716 1574.963989,238.998795 
	C1571.677490,239.088409 1570.047363,238.155899 1570.109985,234.516632 
	C1570.276001,224.857651 1570.275757,215.192825 1570.136475,205.533279 
	C1570.088745,202.226532 1571.376831,201.152832 1574.561157,201.210175 
	C1581.721436,201.339127 1588.888550,201.104736 1596.048340,201.243927 
	C1599.294189,201.307007 1600.417847,200.135391 1600.379150,196.874252 
	C1600.256714,186.548126 1600.517822,176.217072 1600.365479,165.891846 
	C1600.306763,161.916931 1601.520264,160.067230 1605.746094,160.112381 
	C1617.405029,160.236984 1629.068848,160.226669 1640.726440,160.028168 
	C1644.617676,159.961899 1645.610474,161.754288 1645.579224,165.178009 
	C1645.484741,175.505356 1645.721069,185.839981 1645.406494,196.158905 
	C1645.281006,200.277313 1646.713989,201.270599 1650.548218,201.199219 
	C1660.539062,201.013229 1670.538574,201.317627 1680.530518,201.161148 
	C1684.293335,201.102188 1685.968628,202.102890 1685.855835,206.206268 
	C1685.599365,215.527939 1685.644653,224.861908 1685.773438,234.188049 
	C1685.821533,237.674820 1684.473999,238.870026 1681.048828,238.835022 
	C1670.722290,238.729477 1660.391113,238.993607 1650.066406,238.828217 
	C1646.333252,238.768417 1645.033081,240.110336 1645.082520,243.752304 
	C1645.310547,260.570190 1645.383545,277.390167 1645.527710,294.209259 
	C1645.557739,297.706573 1645.517822,301.212128 1645.743042,304.698822 
	C1646.443115,315.543549 1652.006470,321.250000 1662.959595,321.322052 
	C1669.553955,321.365448 1676.222412,320.504700 1682.730347,319.339233 
	C1686.492798,318.665436 1687.635254,319.568634 1687.565308,323.123566 
	C1687.355469,333.779388 1687.288574,344.438690 1686.972412,355.090851 
	C1686.938110,356.252014 1685.829956,358.189148 1684.910034,358.397217 
	C1665.360229,362.819305 1645.831421,364.629150 1626.233154,356.759979 
z"/>
<path fill="#F5791B" opacity="1.000000" stroke="none" 
	d="
M1496.747070,301.000000 
	C1496.694214,318.988159 1496.533936,336.477203 1496.673462,353.963837 
	C1496.704102,357.815735 1495.763672,359.256653 1491.688232,359.175659 
	C1480.200928,358.947418 1468.704590,359.054535 1457.213867,359.189606 
	C1454.391602,359.222809 1452.937988,358.696136 1452.944458,355.423187 
	C1453.044800,304.792664 1453.052979,254.161987 1453.097412,203.531357 
	C1453.097656,203.227371 1453.308716,202.923584 1453.801636,201.595139 
	C1462.988403,201.595139 1472.561523,201.586945 1482.134644,201.602295 
	C1483.965332,201.605225 1485.795654,201.740631 1487.626343,201.746735 
	C1494.347778,201.769150 1494.840332,202.348083 1494.401001,209.283081 
	C1494.093872,214.130630 1493.912842,218.986145 1493.675415,223.838104 
	C1494.213135,223.992096 1494.750732,224.146103 1495.288452,224.300095 
	C1496.251343,222.917816 1497.239258,221.552185 1498.173340,220.150757 
	C1509.498535,203.158463 1526.278809,197.837967 1545.590820,198.164932 
	C1550.198730,198.242935 1552.413818,200.328308 1552.243530,205.688736 
	C1551.857910,217.828003 1552.330444,229.994080 1552.416504,242.149521 
	C1552.424316,243.268921 1552.163452,244.390244 1551.981689,245.888245 
	C1543.172729,245.888245 1534.551270,245.475662 1525.990723,246.021240 
	C1519.368286,246.443298 1512.952759,248.368881 1507.581421,252.750015 
	C1500.359253,258.640930 1497.373047,266.582642 1496.966797,275.520721 
	C1496.589111,283.833313 1496.797363,292.172516 1496.747070,301.000000 
z"/>
<path fill="#F57818" opacity="1.000000" stroke="none" 
	d="
M1818.903442,358.024750 
	C1818.812866,337.678955 1818.722290,317.333130 1819.039551,296.253235 
	C1819.314819,283.963074 1819.272217,272.405090 1819.025879,260.851471 
	C1818.748413,247.838242 1808.890503,238.583160 1795.948364,236.562195 
	C1794.942017,235.431473 1794.089600,234.224350 1793.000732,233.947769 
	C1786.380615,232.266068 1782.726807,228.531219 1782.902954,221.316833 
	C1782.984985,217.955429 1780.473267,217.215347 1777.367676,217.347809 
	C1777.912231,220.794250 1778.416870,223.843735 1778.865356,226.901398 
	C1779.039185,228.085342 1778.660400,230.002060 1779.262939,230.361282 
	C1782.242310,232.137955 1785.488770,233.460403 1788.589111,235.044754 
	C1789.480469,235.500290 1790.198608,236.294601 1790.553711,236.949677 
	C1781.588135,237.111389 1773.834839,238.979218 1767.745239,245.659973 
	C1761.989624,251.974335 1759.194946,259.389435 1759.071167,267.719086 
	C1758.846924,282.809753 1758.981079,297.905762 1758.599121,312.953247 
	C1757.155640,310.853302 1755.287842,308.851257 1755.149780,306.736267 
	C1754.733521,300.359497 1754.877319,293.936371 1755.017090,287.536011 
	C1755.145386,281.669708 1755.209351,275.767181 1755.926392,269.957703 
	C1756.761841,263.190247 1755.650757,260.857361 1749.737061,256.696106 
	C1747.131104,254.862534 1745.153442,251.941132 1743.438965,249.173889 
	C1743.016235,248.491272 1744.642944,245.338669 1745.488037,245.268982 
	C1750.335571,244.869202 1755.281982,244.624786 1760.094360,245.187225 
	C1763.636230,245.601166 1765.490967,244.398972 1765.146729,240.677322 
	C1762.365723,241.164474 1759.554932,241.656815 1756.744141,242.149170 
	C1757.007324,241.634308 1757.270630,241.119446 1757.533936,240.604584 
	C1755.569336,238.059570 1753.570557,235.539810 1751.654053,232.959122 
	C1750.667114,231.630096 1749.700317,230.257629 1748.943848,228.791534 
	C1746.988037,225.001144 1748.085205,223.555649 1752.294067,222.887405 
	C1754.633789,222.515930 1756.788086,220.975586 1759.401123,219.971054 
	C1761.212524,219.131409 1762.726440,218.389954 1764.068970,217.412888 
	C1767.408447,214.982803 1770.669678,212.445282 1774.195801,210.229523 
	C1776.906860,209.988388 1779.384644,209.468658 1782.510498,208.812973 
	C1781.057983,207.182190 1780.514893,206.572372 1780.227051,205.697052 
	C1788.375610,203.950745 1796.220947,201.729324 1804.176514,201.216110 
	C1810.925903,200.780716 1817.808350,202.264908 1824.621460,202.996552 
	C1832.798706,203.874680 1839.703491,207.433167 1845.648438,213.063232 
	C1846.904663,214.253006 1848.570679,215.010315 1850.047852,215.966873 
	C1850.047852,215.966873 1850.000000,216.000000 1850.023438,216.332581 
	C1859.046265,229.062866 1862.318115,242.929749 1862.114258,258.190247 
	C1861.698242,289.340881 1861.986938,320.500885 1861.985352,351.657043 
	C1861.985229,353.590973 1861.985352,355.524902 1861.985352,358.024750 
	C1847.144409,358.024750 1833.023926,358.024750 1818.903442,358.024750 
z"/>
<path fill="#F57A1D" opacity="1.000000" stroke="none" 
	d="
M1370.237061,258.000000 
	C1370.247437,240.837845 1370.475952,224.171234 1370.135864,207.516251 
	C1370.034790,202.567856 1371.818848,201.680359 1376.155273,201.774597 
	C1386.980469,202.009888 1397.819824,202.047165 1408.642090,201.750473 
	C1413.256592,201.623962 1414.633301,203.101440 1414.608032,207.710800 
	C1414.435059,239.201340 1414.535522,270.693298 1414.520752,302.184814 
	C1414.512695,319.346710 1414.338013,336.509644 1414.498413,353.669678 
	C1414.536499,357.747375 1413.398193,359.259949 1409.177612,359.177948 
	C1397.851929,358.957947 1386.515381,358.968140 1375.190186,359.212524 
	C1371.120361,359.300354 1370.149292,357.817474 1370.165161,353.974304 
	C1370.295654,322.149994 1370.238281,290.324860 1370.237061,258.000000 
z"/>
<path fill="#F47A1D" opacity="1.000000" stroke="none" 
	d="
M342.512695,438.000244 
	C342.506897,446.658600 342.605682,454.818726 342.465393,462.974701 
	C342.328613,470.925323 337.623535,476.029938 330.626099,476.157501 
	C323.405975,476.289093 317.706177,471.081665 317.683228,463.323303 
	C317.607849,437.855499 317.779358,412.385834 318.046844,386.918945 
	C318.115753,380.361267 323.440918,376.101135 330.577850,376.191620 
	C337.672638,376.281586 342.544189,380.945923 342.570648,388.050812 
	C342.632050,404.533630 342.541534,421.017029 342.512695,438.000244 
z"/>
<path fill="#F47A1C" opacity="1.000000" stroke="none" 
	d="
M342.527100,81.000473 
	C342.554810,94.991753 342.608154,108.483063 342.599030,121.974342 
	C342.593872,129.602829 338.039520,134.471054 330.877289,134.643372 
	C323.234253,134.827255 318.004883,129.872696 317.975433,121.963295 
	C317.883026,97.153343 317.900116,72.342781 317.952881,47.532623 
	C317.967102,40.837986 323.323120,35.503227 329.901215,35.318466 
	C336.469788,35.133972 342.017120,40.239632 342.170715,47.029362 
	C342.423096,58.183376 342.421173,69.343147 342.527100,81.000473 
z"/>
<path fill="#F47C22" opacity="1.000000" stroke="none" 
	d="
M114.376099,257.467102 
	C114.328957,246.927002 118.015129,243.213852 128.108917,243.221100 
	C151.576263,243.237976 175.043640,243.284668 198.510941,243.259094 
	C203.775970,243.253326 207.565857,245.776901 209.677292,250.263016 
	C211.755875,254.679352 212.013580,259.694885 208.310318,263.310425 
	C206.046265,265.520844 202.450623,267.567474 199.425171,267.607971 
	C175.296600,267.930725 151.161255,267.786285 127.028214,267.713470 
	C120.352158,267.693298 116.631203,264.679504 114.376099,257.467102 
z"/>
<path fill="#F47C20" opacity="1.000000" stroke="none" 
	d="
M467.063904,267.794617 
	C463.282074,267.555267 459.769684,267.962189 456.744293,266.934937 
	C451.635681,265.200378 448.711334,258.913361 449.624786,253.408142 
	C450.529175,247.957626 455.392395,243.421066 461.078918,243.387665 
	C485.732208,243.242783 510.386749,243.186996 535.040222,243.274582 
	C541.792725,243.298569 546.204712,248.648178 546.098206,255.927307 
	C545.997925,262.781555 541.215942,267.564850 534.018127,267.614777 
	C514.528748,267.749878 495.038391,267.751282 475.548431,267.802551 
	C472.883087,267.809570 470.217712,267.798615 467.063904,267.794617 
z"/>
<path fill="#F47B1F" opacity="1.000000" stroke="none" 
	d="
M439.295959,163.313156 
	C436.661957,165.862946 434.350098,168.258102 431.862152,170.453690 
	C426.878632,174.851578 420.198547,174.425766 415.405060,169.528137 
	C410.354736,164.368149 410.089294,158.274612 415.091827,153.171371 
	C431.625366,136.304977 448.207062,119.484535 464.905914,102.782082 
	C471.311157,96.375481 477.894989,95.929260 482.847961,101.033409 
	C488.152679,106.500023 487.970947,113.875351 481.904297,120.106445 
	C467.874451,134.516678 453.671326,148.758286 439.295959,163.313156 
z"/>
<path fill="#F57B1F" opacity="1.000000" stroke="none" 
	d="
M199.060684,405.067261 
	C196.986588,407.018341 195.292236,408.890106 193.312408,410.383392 
	C188.011444,414.381653 181.414841,413.787415 177.083389,409.101715 
	C172.916367,404.593903 172.685211,397.344757 177.123672,392.791992 
	C194.185989,375.290314 211.329132,357.865295 228.622787,340.592560 
	C233.641281,335.580139 241.391068,336.122375 245.988571,341.236694 
	C249.928055,345.618988 250.120453,353.327393 245.504913,357.902405 
	C229.919357,373.351044 214.681229,389.150208 199.060684,405.067261 
z"/>
<path fill="#F57B20" opacity="1.000000" stroke="none" 
	d="
M411.487366,347.581543 
	C414.742645,337.279694 425.770386,333.641327 433.869965,342.187347 
	C449.547546,358.729034 465.821320,374.703979 481.658386,391.097015 
	C488.640045,398.323792 487.768494,406.786285 480.079651,411.308350 
	C475.493805,414.005402 470.532593,413.749115 466.370911,409.694061 
	C456.843781,400.410980 447.566864,390.869293 438.260925,381.361603 
	C430.351532,373.280762 422.346924,365.276123 414.824219,356.845367 
	C412.849823,354.632660 412.508850,350.962494 411.487366,347.581543 
z"/>
<path fill="#F57B1F" opacity="1.000000" stroke="none" 
	d="
M207.845856,149.154205 
	C197.983673,139.201736 188.306625,129.560791 178.821472,119.734589 
	C173.683121,114.411461 172.641235,108.009209 175.683517,103.419815 
	C180.356339,96.370689 188.411575,95.259346 194.474442,101.303322 
	C207.098175,113.887703 219.477127,126.717697 231.953247,139.450089 
	C236.618256,144.210907 241.362488,148.898254 245.908585,153.770279 
	C250.406891,158.591049 250.105453,165.083710 245.402130,169.829041 
	C240.690338,174.582962 234.073013,175.014786 229.390045,170.511932 
	C222.186630,163.585602 215.193375,156.440704 207.845856,149.154205 
z"/>
<path fill="#F67B1F" opacity="1.000000" stroke="none" 
	d="
M268.143738,438.238586 
	C265.879425,441.677246 264.299988,445.418976 261.522156,447.703522 
	C257.565796,450.957245 251.461929,450.144745 247.679565,446.991943 
	C243.203125,443.260590 241.837906,438.038910 244.057693,432.643433 
	C252.091797,413.115356 260.158447,393.600677 268.220551,374.084137 
	C271.067627,367.191986 278.010742,364.182831 284.574310,366.974579 
	C291.193146,369.789825 293.775452,376.157257 290.930664,383.086914 
	C283.424530,401.371185 275.844238,419.625031 268.143738,438.238586 
z"/>
<path fill="#F57C1F" opacity="1.000000" stroke="none" 
	d="
M378.596680,106.398697 
	C383.787994,93.727280 388.751221,81.374130 393.950867,69.121323 
	C395.884003,64.565994 399.310791,61.469471 404.612122,61.388222 
	C409.732880,61.309746 413.931763,63.643646 415.872803,68.182632 
	C417.048035,70.930855 417.362152,74.880905 416.308838,77.615219 
	C408.657288,97.478401 400.574463,117.175751 392.593872,136.911728 
	C389.965332,143.412064 382.756989,146.581680 376.603210,144.037170 
	C369.784363,141.217682 367.134186,134.579407 370.001953,127.563690 
	C372.834869,120.633270 375.643341,113.692833 378.596680,106.398697 
z"/>
<path fill="#F57C1F" opacity="1.000000" stroke="none" 
	d="
M280.571228,102.273453 
	C284.057617,110.959419 287.516266,119.247581 290.743622,127.624840 
	C293.432526,134.604462 290.734039,141.139847 284.326447,143.841522 
	C277.986176,146.514816 271.296692,143.849701 268.398895,136.930389 
	C260.235168,117.437119 252.226562,97.877670 244.325058,78.276482 
	C241.647263,71.633705 244.453598,65.095016 250.607483,62.468948 
	C256.917938,59.776070 263.720398,62.491276 266.675323,69.263939 
	C271.398315,80.089050 275.867065,91.025085 280.571228,102.273453 
z"/>
<path fill="#F57B21" opacity="1.000000" stroke="none" 
	d="
M137.718689,327.027222 
	C140.265747,324.265839 142.258316,320.892151 145.164429,319.641907 
	C164.860199,311.168518 184.726898,303.089569 204.588638,295.006653 
	C210.532776,292.587646 217.047241,295.750061 219.695175,301.973755 
	C222.345978,308.204163 220.049515,315.050598 213.993973,317.544952 
	C194.009827,325.776611 173.998627,333.948883 153.885880,341.859406 
	C144.359207,345.606354 136.463303,338.391083 137.718689,327.027222 
z"/>
<path fill="#F57B21" opacity="1.000000" stroke="none" 
	d="
M514.210693,168.377335 
	C519.859985,170.978073 523.044922,174.960114 522.846619,180.956207 
	C522.658630,186.642258 519.214600,189.730423 514.117249,191.845093 
	C494.919739,199.809357 475.853241,208.088943 456.670319,216.088928 
	C449.732361,218.982315 443.800293,216.361877 440.768463,209.557053 
	C438.024902,203.399261 440.835724,196.437210 447.630737,193.481506 
	C457.999329,188.971390 468.485504,184.731918 478.915558,180.362762 
	C487.490356,176.770782 495.987732,172.978699 504.665161,169.655945 
	C507.480072,168.578079 510.755951,168.704193 514.210693,168.377335 
z"/>
<path fill="#F77C1F" opacity="1.000000" stroke="none" 
	d="
M451.475800,319.415283 
	C447.902771,316.869751 443.886719,315.070953 441.623108,311.986145 
	C438.102997,307.189087 439.107971,302.211823 442.986328,297.884064 
	C446.661865,293.782593 450.963989,292.787750 456.523010,295.062775 
	C476.040497,303.050232 495.543823,311.073151 515.015564,319.171356 
	C521.682617,321.944153 524.795715,328.771515 522.313599,334.607880 
	C519.306335,341.679108 512.626831,344.210144 505.388153,341.255920 
	C487.553955,333.977509 469.677643,326.802307 451.475800,319.415283 
z"/>
<path fill="#F57B1F" opacity="1.000000" stroke="none" 
	d="
M387.619080,426.481506 
	C381.664795,411.603546 375.916779,397.057465 370.037720,382.564575 
	C367.493774,376.293335 369.745941,369.963593 375.778442,367.200378 
	C381.971924,364.363373 389.274292,366.522705 391.930817,372.646973 
	C396.630371,383.481018 400.853638,394.522003 405.259277,405.483185 
	C408.918793,414.587921 412.660553,423.661652 416.165405,432.825806 
	C418.862732,439.878540 416.769928,445.019775 410.306244,448.157684 
	C404.366486,451.041260 397.956238,449.128418 394.653870,442.834656 
	C391.964417,437.708984 390.037292,432.183289 387.619080,426.481506 
z"/>
<path fill="#F67B1F" opacity="1.000000" stroke="none" 
	d="
M151.543213,168.315018 
	C172.628281,177.005798 193.368713,185.494308 213.950699,194.351013 
	C219.759125,196.850479 221.792313,204.037842 219.159409,209.669632 
	C216.240829,215.912476 210.450592,218.678986 204.376556,216.175308 
	C184.722183,208.073929 165.115540,199.853760 145.565811,191.503113 
	C139.024567,188.709015 136.369247,183.228760 137.939346,177.104492 
	C139.415451,171.346725 144.213806,168.128662 151.543213,168.315018 
z"/>
<path fill="#F57C1F" opacity="1.000000" stroke="none" 
	d="
M1414.607422,158.999908 
	C1414.603638,164.831787 1414.497437,170.166595 1414.637573,175.494919 
	C1414.710327,178.257385 1413.710327,179.449478 1410.908569,179.434265 
	C1398.578247,179.367264 1386.245605,179.484528 1373.920166,179.226776 
	C1372.637451,179.199951 1370.327026,177.156357 1370.302612,176.009872 
	C1370.050537,164.203400 1370.080811,152.387039 1370.336548,140.580017 
	C1370.360596,139.472763 1372.444336,137.490692 1373.601196,137.468719 
	C1386.093994,137.231461 1398.592773,137.327820 1411.089600,137.279144 
	C1414.090332,137.267456 1414.622925,139.002792 1414.595581,141.504227 
	C1414.533569,147.168808 1414.595581,152.834747 1414.607422,158.999908 
z"/>
<path fill="#F78937" opacity="1.000000" stroke="none" 
	d="
M1849.977417,215.637558 
	C1848.570679,215.010315 1846.904663,214.253006 1845.648438,213.063232 
	C1839.703491,207.433167 1832.798706,203.874680 1824.621460,202.996552 
	C1817.808350,202.264908 1810.925903,200.780716 1804.176514,201.216110 
	C1796.220947,201.729324 1788.375610,203.950745 1779.912720,205.847076 
	C1777.549438,207.492081 1775.755981,208.721497 1773.962402,209.950912 
	C1770.669678,212.445282 1767.408447,214.982803 1764.068970,217.412888 
	C1762.726440,218.389954 1761.212524,219.131409 1759.386230,219.506744 
	C1758.989136,195.871033 1758.928101,172.708405 1759.035645,149.546555 
	C1759.051270,146.190430 1758.235107,144.819946 1754.593872,144.899704 
	C1744.267090,145.125961 1733.928589,145.162979 1723.603149,144.915054 
	C1719.689087,144.821060 1718.928101,146.280945 1718.932617,149.852951 
	C1719.018921,217.674240 1719.019775,285.495728 1718.906860,353.316956 
	C1718.900513,357.128815 1720.079224,358.310059 1723.763184,358.023926 
	C1733.745483,357.248596 1743.737915,356.440735 1753.740479,356.167114 
	C1758.049683,356.049225 1759.113892,354.456055 1759.054932,350.491760 
	C1758.869507,337.996643 1758.973511,325.497284 1758.965576,312.999542 
	C1758.981079,297.905762 1758.846924,282.809753 1759.071167,267.719086 
	C1759.194946,259.389435 1761.989624,251.974335 1767.745239,245.659973 
	C1773.834839,238.979218 1781.588135,237.111389 1790.970459,236.965881 
	C1793.217529,236.949280 1794.605347,236.932587 1795.993042,236.915894 
	C1808.890503,238.583160 1818.748413,247.838242 1819.025879,260.851471 
	C1819.272217,272.405090 1819.314819,283.963074 1819.117676,295.794006 
	C1818.612305,286.935059 1818.635376,277.791687 1818.197998,268.670410 
	C1817.855713,261.528412 1817.189453,254.329025 1812.529907,248.347763 
	C1805.153687,238.878845 1794.975464,237.222565 1784.192261,239.398117 
	C1768.584717,242.547043 1761.528809,251.807999 1761.461914,267.957031 
	C1761.345215,296.121063 1761.338867,324.285553 1761.269775,352.449799 
	C1761.252441,359.485748 1761.223389,359.510651 1754.439575,359.530090 
	C1743.773804,359.560638 1733.105713,359.430786 1722.443481,359.628967 
	C1718.685303,359.698822 1717.145508,358.764252 1717.153687,354.632538 
	C1717.290161,285.638428 1717.315918,216.644028 1717.239136,147.649826 
	C1717.234009,143.017349 1718.878296,141.540604 1723.409790,141.651489 
	C1733.402710,141.895996 1743.406250,141.683960 1753.405518,141.684128 
	C1760.759888,141.684235 1760.794556,141.702591 1760.788452,148.778687 
	C1760.770020,169.927170 1760.716431,191.075607 1760.698242,212.224091 
	C1760.697144,213.482758 1760.887085,214.741592 1761.033325,216.561661 
	C1762.203613,216.005417 1763.069458,215.851669 1763.532959,215.336060 
	C1776.852051,200.518127 1794.353271,198.217377 1812.838501,198.710190 
	C1824.509521,199.021332 1835.145630,202.230972 1844.276123,209.683014 
	C1846.321289,211.352066 1848.038696,213.422562 1849.977417,215.637558 
z"/>
<path fill="#F78937" opacity="1.000000" stroke="none" 
	d="
M1819.004639,358.404297 
	C1833.023926,358.024750 1847.144409,358.024750 1861.985352,358.024750 
	C1861.985352,355.524902 1861.985229,353.590973 1861.985352,351.657043 
	C1861.986938,320.500885 1861.698242,289.340881 1862.114258,258.190247 
	C1862.318115,242.929749 1859.046265,229.062866 1850.039795,216.308701 
	C1852.403442,219.060837 1855.671021,221.839951 1856.958862,225.346207 
	C1859.680420,232.756668 1863.042114,240.514526 1863.191650,248.187378 
	C1863.885864,283.802216 1863.565918,319.436676 1863.632446,355.064087 
	C1863.636841,357.424591 1863.463379,359.484222 1860.345703,359.473022 
	C1846.865601,359.424561 1833.385620,359.393646 1819.905640,359.327454 
	C1819.638062,359.326172 1819.372437,358.972900 1819.004639,358.404297 
z"/>
<path fill="#14181C" opacity="1.000000" stroke="none" 
	d="
M1086.882690,356.019806 
	C1086.901611,356.662476 1086.920410,357.305176 1086.957520,358.269104 
	C1083.903198,358.717316 1080.830444,358.844269 1077.026611,358.576202 
	C1073.570190,358.332458 1070.844971,358.483765 1068.119629,358.635071 
	C1065.039429,358.727142 1061.959106,358.819214 1058.446777,358.745544 
	C1054.675537,357.793121 1051.336304,357.006439 1047.470215,356.095642 
	C1047.470215,353.451080 1047.470215,350.268127 1047.470215,347.044800 
	C1047.578247,347.156891 1047.750122,347.249512 1047.763428,347.361176 
	C1048.803101,355.992676 1048.802002,355.992706 1057.678955,355.991486 
	C1066.466431,355.990326 1075.253784,355.989349 1084.827271,355.992065 
	C1086.036377,356.003845 1086.459595,356.011841 1086.882690,356.019806 
z"/>
<path fill="#22272B" opacity="1.000000" stroke="none" 
	d="
M1068.418579,358.854370 
	C1070.844971,358.483765 1073.570190,358.332458 1076.586914,358.420563 
	C1074.158081,358.797852 1071.437866,358.935760 1068.418579,358.854370 
z"/>
<path fill="#161B20" opacity="1.000000" stroke="none" 
	d="
M1086.910645,355.549866 
	C1086.459595,356.011841 1086.036377,356.003845 1085.294434,355.989807 
	C1084.975586,324.556335 1084.975586,293.128906 1084.975586,261.701477 
	C1085.629883,261.702118 1086.284302,261.702759 1086.938599,261.703430 
	C1086.938599,292.828918 1086.938599,323.954407 1086.910645,355.549866 
z"/>
<path fill="#14181C" opacity="1.000000" stroke="none" 
	d="
M1049.000000,275.005981 
	C1049.000000,285.102448 1049.000000,294.699768 1049.000000,304.297119 
	C1048.570923,304.298218 1048.141724,304.299347 1047.712646,304.300476 
	C1047.712646,289.773590 1047.712646,275.246704 1047.712646,260.719818 
	C1048.141724,260.700867 1048.570923,260.681885 1049.000000,260.662933 
	C1049.000000,265.277588 1049.000000,269.892242 1049.000000,275.005981 
z"/>
<path fill="#14181C" opacity="1.000000" stroke="none" 
	d="
M1049.004883,326.750000 
	C1048.892822,328.585083 1048.780884,329.964844 1048.668823,331.344604 
	C1048.309448,331.337097 1047.949951,331.329620 1047.590576,331.322144 
	C1047.590576,326.457062 1047.590576,321.591980 1047.590576,316.726929 
	C1048.062012,316.698547 1048.533447,316.670166 1049.004883,316.641815 
	C1049.004883,319.859406 1049.004883,323.077026 1049.004883,326.750000 
z"/>
<path fill="#14181C" opacity="1.000000" stroke="none" 
	d="
M1048.029053,199.656082 
	C1048.633423,203.205521 1048.843994,206.742798 1049.054565,210.280060 
	C1048.354980,210.278198 1047.655273,210.276337 1046.955688,210.274475 
	C1047.182251,206.730942 1047.408813,203.187424 1048.029053,199.656082 
z"/>
<path fill="#14181C" opacity="1.000000" stroke="none" 
	d="
M1048.027954,230.634354 
	C1048.588745,233.200317 1048.770142,235.754272 1048.951538,238.308228 
	C1048.319580,238.305618 1047.687622,238.303024 1047.055664,238.300415 
	C1047.253296,235.741058 1047.450928,233.181702 1048.027954,230.634354 
z"/>
<path fill="#14181C" opacity="1.000000" stroke="none" 
	d="
M1048.581909,253.149048 
	C1047.839355,251.920517 1047.321167,250.416763 1046.802856,248.913025 
	C1047.470581,248.792267 1048.138428,248.671524 1048.806152,248.550766 
	C1048.806152,249.991791 1048.806152,251.432816 1048.581909,253.149048 
z"/>
<path fill="#14181C" opacity="1.000000" stroke="none" 
	d="
M1047.352417,146.167084 
	C1047.727173,147.309464 1047.884521,148.667892 1048.041870,150.026337 
	C1047.739624,150.032593 1047.437256,150.038849 1047.135010,150.045120 
	C1047.135010,148.824463 1047.135010,147.603806 1047.352417,146.167084 
z"/>
<path fill="#14181C" opacity="1.000000" stroke="none" 
	d="
M1048.798096,224.809479 
	C1048.241211,225.055313 1047.745117,225.001740 1047.249146,224.948181 
	C1047.360474,224.496063 1047.471802,224.043945 1047.583130,223.591827 
	C1048.008301,223.897903 1048.433594,224.203995 1048.798096,224.809479 
z"/>
<path fill="#14181C" opacity="1.000000" stroke="none" 
	d="
M1047.360107,158.098053 
	C1047.684692,158.952713 1047.800415,160.005173 1047.916138,161.057648 
	C1047.661133,161.070877 1047.406250,161.084106 1047.151245,161.097351 
	C1047.151245,160.163513 1047.151245,159.229691 1047.360107,158.098053 
z"/>
<path fill="#14181C" opacity="1.000000" stroke="none" 
	d="
M1047.657349,166.110855 
	C1047.384766,165.838913 1047.272339,165.430862 1047.217651,165.015228 
	C1047.208008,164.941101 1047.437378,164.835495 1047.556396,164.744415 
	C1047.650024,165.153671 1047.743652,165.562912 1047.657349,166.110855 
z"/>
<path fill="#161B20" opacity="1.000000" stroke="none" 
	d="
M1086.448730,256.535217 
	C1086.414673,256.478333 1086.482910,256.592133 1086.448730,256.535217 
z"/>
<path fill="#F7F7F7" opacity="1.000000" stroke="none" 
	d="
M758.124390,265.473511 
	C755.844788,265.040192 754.615906,264.100983 755.435181,261.417603 
	C759.508423,248.076813 767.846191,239.207611 781.923340,236.988846 
	C794.974731,234.931778 806.456848,238.211517 814.347900,249.502396 
	C817.401855,253.872147 820.286377,258.768524 817.979980,264.900513 
	C817.270203,265.185028 817.062073,265.255066 816.853943,265.325134 
	C815.822815,265.235748 814.791626,265.146362 812.972412,265.088806 
	C800.796936,265.204437 789.409546,265.288177 778.022217,265.371948 
	C773.322876,265.295868 768.623474,265.219788 763.086426,265.175964 
	C760.873962,265.296661 759.499207,265.385101 758.124390,265.473511 
z"/>
<path fill="#14181C" opacity="1.000000" stroke="none" 
	d="
M778.047974,265.764038 
	C789.409546,265.288177 800.796936,265.204437 812.606140,265.232300 
	C811.939392,266.227783 810.866577,267.855469 809.759644,267.878937 
	C800.170654,268.082367 790.574768,268.050446 780.983276,267.917755 
	C780.005493,267.904236 779.043213,266.770203 778.047974,265.764038 
z"/>
<path fill="#14181C" opacity="1.000000" stroke="none" 
	d="
M758.135925,265.882324 
	C759.499207,265.385101 760.873962,265.296661 762.648010,265.325378 
	C762.001770,269.119232 760.325500,269.153931 758.135925,265.882324 
z"/>
<path fill="#14181C" opacity="1.000000" stroke="none" 
	d="
M816.960083,265.604187 
	C817.062073,265.255066 817.270203,265.185028 817.799500,265.187317 
	C817.769226,265.467468 817.417725,265.675354 816.960083,265.604187 
z"/>
<path fill="#F57718" opacity="1.000000" stroke="none" 
	d="
M1758.599121,312.953247 
	C1758.973511,325.497284 1758.869507,337.996643 1759.054932,350.491760 
	C1759.113892,354.456055 1758.049683,356.049225 1753.740479,356.167114 
	C1743.737915,356.440735 1733.745483,357.248596 1723.763184,358.023926 
	C1720.079224,358.310059 1718.900513,357.128815 1718.906860,353.316956 
	C1719.019775,285.495728 1719.018921,217.674240 1718.932617,149.852951 
	C1718.928101,146.280945 1719.689087,144.821060 1723.603149,144.915054 
	C1733.928589,145.162979 1744.267090,145.125961 1754.593872,144.899704 
	C1758.235107,144.819946 1759.051270,146.190430 1759.035645,149.546555 
	C1758.928101,172.708405 1758.989136,195.871033 1759.010986,219.497726 
	C1756.788086,220.975586 1754.633789,222.515930 1752.294067,222.887405 
	C1748.085205,223.555649 1746.988037,225.001144 1748.943848,228.791534 
	C1749.700317,230.257629 1750.667114,231.630096 1751.654053,232.959122 
	C1753.570557,235.539810 1755.569336,238.059570 1757.533936,240.604584 
	C1757.270630,241.119446 1757.007324,241.634308 1756.744141,242.149170 
	C1759.554932,241.656815 1762.365723,241.164474 1765.146729,240.677322 
	C1765.490967,244.398972 1763.636230,245.601166 1760.094360,245.187225 
	C1755.281982,244.624786 1750.335571,244.869202 1745.488037,245.268982 
	C1744.642944,245.338669 1743.016235,248.491272 1743.438965,249.173889 
	C1745.153442,251.941132 1747.131104,254.862534 1749.737061,256.696106 
	C1755.650757,260.857361 1756.761841,263.190247 1755.926392,269.957703 
	C1755.209351,275.767181 1755.145386,281.669708 1755.017090,287.536011 
	C1754.877319,293.936371 1754.733521,300.359497 1755.149780,306.736267 
	C1755.287842,308.851257 1757.155640,310.853302 1758.599121,312.953247 
z"/>
<path fill="#F57718" opacity="1.000000" stroke="none" 
	d="
M1795.948364,236.562210 
	C1794.605347,236.932587 1793.217529,236.949280 1791.413086,236.949799 
	C1790.198608,236.294601 1789.480469,235.500290 1788.589111,235.044754 
	C1785.488770,233.460403 1782.242310,232.137955 1779.262939,230.361282 
	C1778.660400,230.002060 1779.039185,228.085342 1778.865356,226.901398 
	C1778.416870,223.843735 1777.912231,220.794250 1777.367676,217.347809 
	C1780.473267,217.215347 1782.984985,217.955429 1782.902954,221.316833 
	C1782.726807,228.531219 1786.380615,232.266068 1793.000732,233.947769 
	C1794.089600,234.224350 1794.942017,235.431473 1795.948364,236.562210 
z"/>
<path fill="#F57718" opacity="1.000000" stroke="none" 
	d="
M1774.195801,210.229523 
	C1775.755981,208.721497 1777.549438,207.492081 1779.657471,206.112610 
	C1780.514893,206.572372 1781.057983,207.182190 1782.510498,208.812973 
	C1779.384644,209.468658 1776.906860,209.988388 1774.195801,210.229523 
z"/>
</svg>